<?xml version="1.0" encoding="UTF-8"?>
<!-- Generator: Adobe Illustrator 26.1.0, SVG Export Plug-In . SVG Version: 6.00 Build 0)  -->
<svg xmlns="http://www.w3.org/2000/svg" xmlns:xlink="http://www.w3.org/1999/xlink" version="1.1" id="Layer_1" x="0px" y="0px" width="542.969px" height="626.967px" viewBox="0 0 542.969 626.967" xml:space="preserve">
<path id="_x23_000000" d="M271.485,0L0,156.742v313.483l271.485,156.742l271.484-156.742V156.742L271.485,0z M278.328,22.626  l221.618,127.952l-221.618-25.032V22.626z M524.976,167.178l-95.739,224.031L284.191,139.981L524.976,167.178z M418.301,399.638  H124.669l146.816-254.293L418.301,399.638z M264.642,22.626v102.92L43.023,150.578L264.642,22.626z M258.779,139.981L113.732,391.21  L17.993,167.178L258.779,139.981z M16.174,197.747l87.942,205.785l-87.942,49.606V197.747z M23.151,464.915l87.801-49.526  l133.02,177.018L23.151,464.915z M126.518,413.323h289.934L271.485,606.238L126.518,413.323z M298.997,592.407l133.021-177.019  l87.8,49.526L298.997,592.407z M526.795,453.138l-87.941-49.605l87.941-205.784V453.138z M200.249,297.943l0.166-1.121  c1.207-8.13,4.862-15.182,10.867-20.963c6.041-5.818,14.042-8.767,23.779-8.767c10.078,0,18.262,2.926,24.325,8.697  c6.08,5.788,9.164,13.233,9.164,22.127c0,7.859-2.729,14.97-8.108,21.134c-4.985,5.711-16.421,13.673-34.899,24.288h42.746v16.342  h-67.887v-17.453l27.728-18.44c8.271-5.514,13.883-10.438,16.682-14.636c2.751-4.126,4.145-7.929,4.145-11.3  c0-4.076-1.309-7.406-4.003-10.18c-2.682-2.763-6.089-4.106-10.413-4.106c-9.492,0-14.805,5.701-16.246,17.429l-0.172,1.4  L200.249,297.943z M312.995,361.044c8.107,0,14.958-2.273,20.362-6.755c5.35-4.437,9.305-10.174,11.755-17.053  c2.42-6.801,3.647-15.591,3.647-26.126c0-6.352-1.303-13.24-3.875-20.471c-2.604-7.323-6.636-13.135-11.983-17.275  c-5.378-4.162-12.033-6.273-19.776-6.273c-10.774,0-19.481,4.482-25.876,13.322c-6.303,8.716-9.499,20.356-9.499,34.596  c0,13.201,3.051,24.257,9.066,32.858C292.929,356.611,301.737,361.044,312.995,361.044z M313.255,281.484  c6.416,0,10.635,2.945,12.903,9.004c2.384,6.373,3.593,13.202,3.593,20.298c0,8.672-0.495,15.544-1.47,20.426  c-0.944,4.714-2.731,8.414-5.313,10.996c-2.553,2.553-5.836,3.794-10.037,3.794c-6.221,0-10.393-2.767-12.757-8.46  c-2.482-5.969-3.741-14.01-3.741-23.896C296.433,292.305,302.093,281.484,313.255,281.484z M114.605,217.082  c-2.809-8.427-14.246-12.44-19.062-1.605c-4.816,10.835,6.421,15.45,6.421,15.45l-9.23,19.664  c-35.114-29.094,6.7-75.966,28.894-62.402c10.835,6.621,9.832,26.887,16.759,45.548c5.112-7.625,17.753-31.904,17.753-31.904  l15.45,6.621l-37.923,63.004l-6.621-3.117C127.045,268.34,117.414,225.509,114.605,217.082z M208.91,71.61l-47.354,53.172h-14.046  l40.531-39.929l-20.266,8.227l7.625-8.026l24.68-12.039L208.91,71.61z M240.613,63.383c-10.835,3.612-28.894,16.052-23.877,23.219  c-7.825,2.665-49.561,38.18-11.036,33.164c40.043-5.214,49.36-39.127,37.321-37.722c0,0,13.042-5.819,15.651-12.44  C261.28,62.982,251.448,59.771,240.613,63.383z M223.472,102.387c-5.198,3.676-10.744,4.771-12.389,2.445  c-1.645-2.326,1.235-7.191,6.433-10.867c5.198-3.676,10.744-4.771,12.389-2.445C231.55,93.846,228.67,98.711,223.472,102.387z   M239.713,78.782c-4.009,2.835-8.323,3.63-9.636,1.774c-1.313-1.856,0.873-5.659,4.883-8.494c4.009-2.835,8.323-3.629,9.636-1.774  C245.908,72.144,243.722,75.947,239.713,78.782z M364.348,108.396h5.351l-10.166-11.236l-4.949,0.669l-24.479-27.155l-12.975-2.809  l-0.669,25.817l5.618,7.892l27.69,4.147l14.581,16.052l13.644,0.936L364.348,108.396z M329.034,92.477l-0.936-13.109L339.2,93.548  L329.034,92.477z M413.173,188.522l-18.594-14.179l13.377-4.548l21.938,15.517l7.759,13.51l-63.004,24.747l-9.899-17.657  L413.173,188.522z M401.201,236.678l17.684,30.367l-15.075,8.826l9.765,17.39l15.042-9.504l4.756,8.167l11.504-8.294l-4.414-7.357  l30.766-20.199l-9.364-16.052l-51.5-8.294L401.201,236.678z M449.29,250.189l-17.925,9.497l-6.956-12.708L449.29,250.189z   M502.128,371.917c7.892-3.478,6.153-21.403,6.153-21.403c1.739,1.204,4.147,11.103,3.21,18.861s-5.217,3.612-5.217,3.612  l-3.612,11.905c16.721,20.333,13.51-33.977,8.962-51.5c-4.548-17.523-10.969-34.244-16.988-31.034s-8.427,24.881-6.956,38.124  C489.153,353.725,494.236,375.395,502.128,371.917z M497.892,325.235c2.542-0.386,5.496,5.179,6.596,12.43  s-0.068,13.441-2.61,13.827c-2.542,0.386-5.495-5.179-6.596-12.43S495.35,325.621,497.892,325.235z M479.004,340.633  c1.889-0.286,3.991,3.244,4.693,7.886c0.703,4.641-0.259,8.635-2.149,8.921c-1.889,0.286-3.991-3.244-4.693-7.886  C476.152,344.913,477.114,340.919,479.004,340.633z M49.727,407.232l9.23,8.962l-5.618,10.166l-10.835-10.166l-3.745-8.16  l26.753-64.476l7.09,15.784L49.727,407.232z M40.765,375.395c-12.039,18.594-16.186-5.083-14.581-26.352  s17.122-27.155,17.122-27.155l-7.09-17.791l5.886-17.256l16.052,38.601l-3.879,10.347C28.057,346.08,29.395,357.203,31,364.694  s6.02,0,6.02,0L40.765,375.395z M75.544,469.433c13.243,8.561,27.155,16.587,52.704,17.122c25.55,0.535,11.669-15.593,7.892-19.129  c-15.647-14.651-25.951-18.861-51.634-19.931C58.824,446.425,62.302,460.872,75.544,469.433z M118.271,466.63  c2.153,1.32,10.152,7.458-3.803,8.132s-21.757-2.137-29.208-5.19c-7.451-3.053-9.729-8.865,4.313-9.323  C103.615,459.791,109.349,461.16,118.271,466.63z M94.004,491.371l71.699,14.581l7.223,11.37l-54.042-13.424l13.912,10.883  l-10.291-1.07L94.004,491.371z M287.059,488.379c10.839-4.182,18.298-12.91,18.298-23.004c0-14.16-14.673-25.639-32.773-25.639  c-18.1,0-32.773,11.479-32.773,25.639c0,10.094,7.459,18.821,18.298,23.004c-7.849,3.736-13.081,10.417-13.081,18.041  c0,11.71,12.337,21.202,27.556,21.202c15.219,0,27.556-9.492,27.556-21.202C300.14,498.797,294.908,492.116,287.059,488.379z   M272.584,512.774c-4.827,0-8.739-3.913-8.739-8.739c0-4.827,3.913-8.739,8.739-8.739c4.827,0,8.739,3.913,8.739,8.739  C281.323,508.861,277.41,512.774,272.584,512.774z M272.584,480.982c-6.575,0-11.905-5.33-11.905-11.905  c0-6.575,5.33-11.905,11.905-11.905s11.905,5.33,11.905,11.905C284.489,475.652,279.159,480.982,272.584,480.982z M409.407,466.089  l51.654-3.21l3.478-13.644h11.771l-3.612,13.377l-6.956,8.026l-67.017,8.695L409.407,466.089z M437.519,485.753  c-37.275,2.711-61.005,19.986-68.013,30.15c-1.989,2.885-0.016,6.871,3.483,7.068c29.207,1.645,50.518-19.628,50.619-22.972  c0.064-2.143-3.21-3.143-3.21-3.143s16.052-5.217,14.848,0c-1.204,5.217-12.039,8.829-12.039,8.829l-5.217,7.357  C424.543,512.64,466.947,483.613,437.519,485.753z M401.785,511.74c-6.969,2.638-13.373,2.784-14.304,0.326  c-0.931-2.459,3.964-6.591,10.933-9.229c6.969-2.638,13.373-2.784,14.304-0.326C413.649,504.97,408.754,509.102,401.785,511.74z"></path>
<g>
</g>
<g>
</g>
<g>
</g>
<g>
</g>
<g>
</g>
</svg>
